<svg xmlns="http://www.w3.org/2000/svg" width="8333" height="8333" viewBox="0 0 8333 8333">
  <metadata><?xpacket begin="﻿" id="W5M0MpCehiHzreSzNTczkc9d"?>
<x:xmpmeta xmlns:x="adobe:ns:meta/" x:xmptk="Adobe XMP Core 9.1-c003 79.9690a87, 2025/03/06-19:12:03        ">
   <rdf:RDF xmlns:rdf="http://www.w3.org/1999/02/22-rdf-syntax-ns#">
      <rdf:Description rdf:about=""
            xmlns:xmp="http://ns.adobe.com/xap/1.0/">
         <xmp:CreatorTool>Adobe Photoshop 26.6 (Windows)</xmp:CreatorTool>
      </rdf:Description>
   </rdf:RDF>
</x:xmpmeta>
                                                                                                    
                                                                                                    
                                                                                                    
                                                                                                    
                                                                                                    
                                                                                                    
                                                                                                    
                                                                                                    
                                                                                                    
                                                                                                    
                                                                                                    
                                                                                                    
                                                                                                    
                                                                                                    
                                                                                                    
                                                                                                    
                                                                                                    
                                                                                                    
                                                                                                    
                                                                                                    
                           
<?xpacket end="w"?></metadata>
<defs>
    <style>
      .cls-1, .cls-2 {
        fill: #fd0;
      }

      .cls-2, .cls-3 {
        fill-rule: evenodd;
      }

      .cls-3 {
        fill: #fff;
        stroke: #000;
        stroke-width: 350.38px;
      }
    </style>
  </defs>
  <ellipse class="cls-1" cx="4190.5" cy="5533.5" rx="4083.5" ry="2272.5"/>
  <path class="cls-2" d="M1882,1757c1452.47,497.03,3179,2157,3179,3826S4414.68,6782,3441,6782,107,7203,107,5534,1342.49,1572.38,1882,1757Zm4617,28.91c-1452.47,497.03-3179,2157-3179,3826s646.32,1199,1620,1199,3334,421,3334-1248S7038.51,1601.29,6499,1785.91Z"/>
  <path class="cls-3" d="M2194,4436c957.11,0,1733,426.9,1733,953.5S3151.11,6343,2194,6343,461,5916.1,461,5389.5,1236.89,4436,2194,4436Zm4088.57,0c957.1,0,1733,426.9,1733,953.5s-775.9,953.5-1733,953.5-1733-426.9-1733-953.5S5325.46,4436,6282.57,4436Z"/>
  <ellipse cx="6282.56" cy="5359.5" rx="432" ry="983.5"/>
  <ellipse cx="2176" cy="5419.5" rx="432" ry="983.5"/>
</svg>
